# xmcd
#
# Track frame offsets:
#	150
#	17796
#	24884
#	31272
#	39288
#	54810
#	82363
#	88820
#	107620
#	121054
#	136445
#	157676
#	173997
#	192379
#
# Disc length: 2709 seconds
#
# Revision: 0
# Processed by: cddbd v1.5.2PL0 Copyright (c) Steve Scherf et al.
# Submitted via: EZCDAudioConverter 2.8.0.1
#
DISCID=a50a930e
DTITLE=Toda Su Musica - La Espada Y La Rosa
DYEAR=1900
DGENRE=
TTITLE0=Beyonce - Soy Tu Gitano
TTITLE1=Casi Angeles - Vamos A Bailar
TTITLE2=Teen Angeles - Baila Princesita
TTITLE3=Teleseries - Amores De Mercado
TTITLE4=Angels - La Dueña De Mi Vida
TTITLE5=Jenifer Lopez - Como Ama Una Mujer
TTITLE6=Alexa Hernandez - Amores De Mercado
TTITLE7=Pablo Montero - Olvidarte Jamas
TTITLE8=Anita No Te Rajes
TTITLE9=Chayanne - Si Nos Quedara Poco Tirmpo
TTITLE10=Diego Torres - Andando
TTITLE11=Andy and Lucas - Quiero Que Sepas
TTITLE12=Calle 13 - Atrevete Te Te 
TTITLE13=Ritmo - Juan el Gran Hermano
EXTD=
EXTT0=
EXTT1=
EXTT2=
EXTT3=
EXTT4=
EXTT5=
EXTT6=
EXTT7=
EXTT8=
EXTT9=
EXTT10=
EXTT11=
EXTT12=
EXTT13=
PLAYORDER=
